<svg width="91" height="40" viewBox="0 0 91 40" fill="none" xmlns="http://www.w3.org/2000/svg">
<g clip-path="url(#clip0_0_377)">
<rect width="91" height="40" rx="20" fill="#F40000"/>
<path d="M26.4631 23.7891C25.9865 24.082 25.4006 24.2285 24.7052 24.2285C23.5607 24.2285 22.6232 23.832 21.8927 23.0391C21.131 22.2422 20.7502 21.1523 20.7502 19.7695C20.7502 18.3711 21.1349 17.25 21.9045 16.4062C22.674 15.5625 23.6916 15.1406 24.9572 15.1406C26.0549 15.1406 26.9357 15.4199 27.5998 15.9785C28.2677 16.5332 28.6506 17.2266 28.7482 18.0586H26.9728C26.8361 17.4688 26.5021 17.0566 25.9709 16.8223C25.674 16.6934 25.3439 16.6289 24.9806 16.6289C24.2853 16.6289 23.7131 16.8926 23.2638 17.4199C22.8185 17.9434 22.5959 18.7324 22.5959 19.7871C22.5959 20.8496 22.8381 21.6016 23.3224 22.043C23.8068 22.4844 24.3576 22.7051 24.9748 22.7051C25.5802 22.7051 26.0763 22.5312 26.4631 22.1836C26.8498 21.832 27.0881 21.373 27.1779 20.8066H25.1799V19.3652H28.7775V24H27.5822L27.4006 22.9219C27.0529 23.332 26.7404 23.6211 26.4631 23.7891ZM31.9166 17.6133V24H30.2233V17.6133H31.9166ZM31.9166 15.3105V16.8516H30.2233V15.3105H31.9166ZM36.5792 19.1543C35.9073 19.1543 35.4561 19.373 35.2257 19.8105C35.0968 20.0566 35.0323 20.4355 35.0323 20.9473V24H33.3507V17.6133H34.9444V18.7266C35.2022 18.3008 35.4268 18.0098 35.6182 17.8535C35.9307 17.5918 36.337 17.4609 36.837 17.4609C36.8682 17.4609 36.8936 17.4629 36.9132 17.4668C36.9366 17.4668 36.9854 17.4688 37.0597 17.4727V19.1836C36.9542 19.1719 36.8604 19.1641 36.7784 19.1602C36.6964 19.1562 36.63 19.1543 36.5792 19.1543ZM39.5894 17.6133V24H37.896V17.6133H39.5894ZM39.5894 15.3105V16.8516H37.896V15.3105H39.5894ZM42.5469 25.1016L43.1152 24.2168C42.4277 24.2168 41.8438 24.0059 41.3633 23.584C40.8867 23.1582 40.6484 22.6172 40.6484 21.9609H42.3418C42.377 22.2578 42.4531 22.4688 42.5703 22.5938C42.7773 22.8164 43.1602 22.9277 43.7188 22.9277C44.0469 22.9277 44.3066 22.8789 44.498 22.7812C44.6934 22.6836 44.791 22.5371 44.791 22.3418C44.791 22.1543 44.7129 22.0117 44.5566 21.9141C44.4004 21.8164 43.8203 21.6484 42.8164 21.4102C42.0938 21.2305 41.584 21.0078 41.2871 20.7422C40.9902 20.4727 40.8418 20.0879 40.8418 19.5879C40.8418 18.998 41.0723 18.4922 41.5332 18.0703C41.998 17.6445 42.6504 17.4316 43.4902 17.4316C44.2871 17.4316 44.9355 17.5918 45.4355 17.9121C45.9395 18.2285 46.2285 18.7773 46.3027 19.5586H44.6328C44.6094 19.3438 44.5488 19.1738 44.4512 19.0488C44.2676 18.8223 43.9551 18.709 43.5137 18.709C43.1504 18.709 42.8906 18.7656 42.7344 18.8789C42.582 18.9922 42.5059 19.125 42.5059 19.2773C42.5059 19.4688 42.5879 19.6094 42.752 19.6992C42.916 19.7852 43.4961 19.9375 44.4922 20.1562C45.8164 20.4727 46.4785 21.1094 46.4785 22.0664C46.4785 22.6992 46.2422 23.2168 45.7695 23.6191C45.3008 24.0176 44.6289 24.2168 43.7539 24.2168L43.3789 24.7676C43.5078 24.7402 43.5996 24.7207 43.6543 24.709C43.709 24.7012 43.7676 24.6973 43.8301 24.6973C44.1465 24.6973 44.3984 24.7734 44.5859 24.9258C44.7734 25.082 44.8672 25.3047 44.8672 25.5938C44.8672 25.9531 44.7207 26.2363 44.4277 26.4434C44.1348 26.6543 43.7578 26.7598 43.2969 26.7598C43.0977 26.7598 42.8574 26.7188 42.5762 26.6367C42.4473 26.5977 42.2656 26.5352 42.0312 26.4492L42.2539 25.9453C42.4766 26.0117 42.6289 26.0547 42.7109 26.0742C42.8984 26.1211 43.0508 26.1445 43.168 26.1445C43.4023 26.1445 43.5703 26.0938 43.6719 25.9922C43.7734 25.8945 43.8242 25.791 43.8242 25.6816C43.8242 25.5176 43.7676 25.4023 43.6543 25.3359C43.541 25.2695 43.4199 25.2363 43.291 25.2363C43.2168 25.2363 43.1406 25.2441 43.0625 25.2598C42.9844 25.2793 42.8965 25.3047 42.7988 25.3359L42.5469 25.1016ZM57.6142 15.3633L54.7255 20.7539V24H52.9208V20.7539L49.9325 15.3633H52.0595L53.8525 19.125L55.5693 15.3633H57.6142ZM57.9232 18.3047C58.3646 17.7422 59.1224 17.4609 60.1967 17.4609C60.8959 17.4609 61.517 17.5996 62.0599 17.877C62.6029 18.1543 62.8744 18.6777 62.8744 19.4473V22.377C62.8744 22.5801 62.8783 22.8262 62.8861 23.1152C62.8978 23.334 62.931 23.4824 62.9857 23.5605C63.0404 23.6387 63.1224 23.7031 63.2318 23.7539V24H61.4154C61.3646 23.8711 61.3295 23.75 61.3099 23.6367C61.2904 23.5234 61.2748 23.3945 61.2631 23.25C61.0326 23.5 60.767 23.7129 60.4662 23.8887C60.1068 24.0957 59.7006 24.1992 59.2474 24.1992C58.6693 24.1992 58.1908 24.0352 57.8119 23.707C57.4369 23.375 57.2494 22.9062 57.2494 22.3008C57.2494 21.5156 57.5521 20.9473 58.1576 20.5957C58.4896 20.4043 58.9779 20.2676 59.6224 20.1855L60.1908 20.1152C60.4994 20.0762 60.7201 20.0273 60.8529 19.9688C61.0912 19.8672 61.2103 19.709 61.2103 19.4941C61.2103 19.2324 61.1185 19.0527 60.9349 18.9551C60.7552 18.8535 60.4896 18.8027 60.1381 18.8027C59.7435 18.8027 59.4642 18.9004 59.3002 19.0957C59.183 19.2402 59.1049 19.4355 59.0658 19.6816H57.4545C57.4896 19.123 57.6459 18.6641 57.9232 18.3047ZM59.1654 22.793C59.3217 22.9219 59.5131 22.9863 59.7396 22.9863C60.099 22.9863 60.4291 22.8809 60.7299 22.6699C61.0345 22.459 61.1927 22.0742 61.2045 21.5156V20.8945C61.099 20.9609 60.9916 21.0156 60.8822 21.0586C60.7767 21.0977 60.6302 21.1348 60.4427 21.1699L60.0677 21.2402C59.7162 21.3027 59.4642 21.3789 59.3119 21.4688C59.0541 21.6211 58.9252 21.8574 58.9252 22.1777C58.9252 22.4629 59.0052 22.668 59.1654 22.793ZM69.5408 18.2988C70.0565 18.8496 70.3143 19.6582 70.3143 20.7246C70.3143 21.8496 70.0604 22.707 69.5526 23.2969C69.0487 23.8867 68.3983 24.1816 67.6014 24.1816C67.0936 24.1816 66.6717 24.0547 66.3358 23.8008C66.1522 23.6602 65.9725 23.4551 65.7967 23.1855V26.5137H64.1444V17.6133H65.744V18.5566C65.9237 18.2793 66.1151 18.0605 66.3182 17.9004C66.6893 17.6152 67.1307 17.4727 67.6424 17.4727C68.3885 17.4727 69.0213 17.748 69.5408 18.2988ZM68.5916 20.8066C68.5916 20.3145 68.4783 19.8789 68.2518 19.5C68.0291 19.1211 67.6658 18.9316 67.1619 18.9316C66.5565 18.9316 66.1405 19.2188 65.9139 19.793C65.7967 20.0977 65.7381 20.4844 65.7381 20.9531C65.7381 21.6953 65.9354 22.2168 66.3299 22.5176C66.5643 22.6934 66.8416 22.7812 67.1619 22.7812C67.6268 22.7812 67.9803 22.6016 68.2225 22.2422C68.4686 21.8828 68.5916 21.4043 68.5916 20.8066Z" fill="white"/>
</g>
<defs>
<clipPath id="clip0_0_377">
<rect width="91" height="40" fill="white"/>
</clipPath>
</defs>
</svg>
