<svg width="305" height="363" viewBox="0 0 305 363" fill="none" xmlns="http://www.w3.org/2000/svg">
<path d="M0 32C0 20.799 0 15.1984 2.17987 10.9202C4.09734 7.15695 7.15695 4.09734 10.9202 2.17987C15.1984 0 20.799 0 32 0H273C284.201 0 289.802 0 294.08 2.17987C297.843 4.09734 300.903 7.15695 302.82 10.9202C305 15.1984 305 20.799 305 32V330C305 341.201 305 346.802 302.82 351.08C300.903 354.843 297.843 357.903 294.08 359.82C289.802 362 284.201 362 273 362H32C20.7989 362 15.1984 362 10.9202 359.82C7.15695 357.903 4.09734 354.843 2.17987 351.08C0 346.802 0 341.201 0 330V32Z" fill="white" stroke="#F4F6F5" stroke-width="2"/>
</svg>
